<svg width="40" height="44" viewBox="0 0 40 44" fill="none" xmlns="http://www.w3.org/2000/svg">
<path d="M11.915 15.3516H14.9512L17.9102 18.2074H26.9107" stroke="#54372A" stroke-width="1.5"/>
<path d="M21.6899 16.2775V5.06922C21.6899 2.82185 19.8681 1 17.6207 1H16.6927C14.9579 1 13.5515 2.40637 13.5515 4.14121V4.14121C12.0817 4.15876 9.12127 4.96502 9.0379 8.04974C7.38786 8.27554 4.26495 9.60252 4.9736 13.1041C2.51317 14.0651 -1.34722 17.2245 2.89474 22.1734C1.28574 23.8918 -0.551082 27.9766 4.9736 30.5689C4.55069 32.1646 4.67698 35.4001 8.56543 35.5768M10.7011 33.0729C9.42462 33.8339 7.51967 36.0629 10.112 38.8908C10.7748 39.2345 12.5128 39.9219 14.1625 39.9219C15.4494 42.2049 18.7567 45.4011 21.6899 39.9219V26.5526" stroke="#54372A" stroke-width="1.5"/>
<path d="M23.2756 6.60938C26.7536 6.72338 33.949 8.77589 34.9068 16.0739C35.401 17.6324 35.3972 21.9808 31.4289 26.907C31.2768 27.4961 30.9727 28.9253 30.9727 29.9288C30.9727 31.1831 28.1219 33.6918 22.6484 32.9506" stroke="#54372A" stroke-width="1.5"/>
<line x1="7.88672" y1="19.8984" x2="25.4185" y2="19.8984" stroke="#54372A" stroke-width="1.5"/>
<path d="M11.8105 25.934H14.7538L17.6331 23.0547H24.3089" stroke="#54372A" stroke-width="1.5"/>
<path d="M21.6895 35.5746C23.8786 35.9548 28.7546 35.9894 30.7455 33.0859C30.976 33.662 31.3677 35.3673 31.0912 37.5794C29.0252 39.3243 24.4388 40.2233 21.8969 38.5473" stroke="#54372A" stroke-width="1.5"/>
<path d="M32.4541 3.80469L31.8979 7.62852" stroke="#54372A" stroke-width="1.5" stroke-linecap="round"/>
<path d="M36.4609 6.21875L33.287 8.42265" stroke="#54372A" stroke-width="1.5" stroke-linecap="round"/>
<path d="M38.3545 9.13281L34.5693 9.9095" stroke="#54372A" stroke-width="1.5" stroke-linecap="round"/>
</svg>
