<svg width="55" height="62" viewBox="0 0 55 62" fill="none" xmlns="http://www.w3.org/2000/svg">
<path d="M16.4639 21.3359H20.7651L24.9572 25.3817H37.7083" stroke="white" stroke-width="1.5"/>
<path d="M30.3114 22.6436V5.99719C30.3114 3.23732 28.0741 1 25.3142 1H23.2319C20.7741 1 18.7817 2.9924 18.7817 5.45016V5.45016C16.6994 5.47501 12.5054 6.61724 12.3873 10.9874C10.0497 11.3072 5.62545 13.1872 6.6294 18.1479C3.1437 19.5094 -2.3253 23.9852 3.68427 30.9964C1.40481 33.4308 -1.19742 39.2178 6.6294 42.8903C6.03026 45.1509 6.20917 49.7345 11.7179 49.9849M14.7436 46.4376C12.9352 47.5157 10.2364 50.6735 13.9089 54.6799C14.8479 55.1668 17.3102 56.1406 19.6472 56.1406C21.4705 59.3749 26.1559 63.9029 30.3114 56.1406V37.2004" stroke="white" stroke-width="1.5"/>
<path d="M32.5575 8.94531C37.4847 9.10682 47.6784 12.0146 49.0354 22.3537C49.7355 24.5616 49.73 30.722 44.1082 37.7009C43.8928 38.5356 43.462 40.5603 43.462 41.9819C43.462 43.7589 39.4233 47.313 31.6689 46.2629" stroke="white" stroke-width="1.5"/>
<line x1="10.7559" y1="28.0781" x2="35.5931" y2="28.0781" stroke="white" stroke-width="1.5"/>
<path d="M16.3154 36.3214H20.4851L24.5643 32.2422H34.0218" stroke="white" stroke-width="1.5"/>
<path d="M30.3115 49.9788C33.4128 50.5175 40.3207 50.5664 43.1412 46.4531C43.4677 47.2693 44.0227 49.6851 43.6309 52.819C40.7041 55.2909 34.2065 56.5647 30.6053 54.1902" stroke="white" stroke-width="1.5"/>
<path d="M45.5615 4.96875L44.7736 10.386" stroke="white" stroke-width="1.5" stroke-linecap="round"/>
<path d="M51.2383 8.38281L46.7418 11.5051" stroke="white" stroke-width="1.5" stroke-linecap="round"/>
<path d="M53.9199 12.5078L48.5574 13.6082" stroke="white" stroke-width="1.5" stroke-linecap="round"/>
</svg>
