<svg width="48" height="57" viewBox="0 0 48 57" fill="none" xmlns="http://www.w3.org/2000/svg">
<path d="M35.4696 49.8929H22.8455M1 45.5121V28.5488C1 26.9972 2.2578 25.7394 3.80938 25.7394H21.527V17.9767M1 45.5121V47.0835C1 48.6351 2.2578 49.8929 3.80938 49.8929H15.0102M1 45.5121C11.8124 45.5121 15.2018 45.5121 26.0142 45.5121H35.4696V40.984V25.7394H30.9306M22.8455 49.8929V54.0179M22.8455 49.8929H15.0102M22.8455 54.0179H15.0102M22.8455 54.0179H25.0555V55.9229H12.7427V54.0179H15.0102M15.0102 54.0179V49.8929M21.527 17.9767L19.5312 19.6452M21.527 17.9767L23.8555 19.6452" stroke="white" stroke-width="1.5"/>
<path d="M18.2835 22.5134H16.858C13.9878 22.5134 11.6611 20.1867 11.6611 17.3166V17.3166C11.6611 14.4464 13.9878 12.1197 16.858 12.1197H19.5152M21.6712 12.1197H19.5152M19.5152 12.1197V12.1197C19.5152 6.35216 23.9407 1.54961 29.6891 1.07908L29.844 1.0664C32.4479 0.893547 33.4906 1.06641 35.3057 1.48913V1.48913C38.2569 2.17643 40.7675 4.36827 40.7675 7.39841V8.15003M37.5334 8.15003H39.7119C43.782 8.15003 47.0815 11.4495 47.0815 15.5196V15.5196C47.0815 18.896 44.3445 21.633 40.9681 21.633H29.9799C27.7804 21.633 25.9973 23.4158 25.9973 25.6153C25.9973 27.6007 25.9973 29.9719 25.9973 31.8482M25.9973 31.8482L27.9683 29.9977M25.9973 31.8482L23.9627 29.9977" stroke="white" stroke-width="1.5"/>
</svg>
