<svg width="13" height="18" viewBox="0 0 13 18" fill="none" xmlns="http://www.w3.org/2000/svg">
<path d="M6.49997 17.2522C6.33389 17.0637 6.11828 16.8146 5.86771 16.5154C5.26493 15.7956 4.46212 14.7882 3.66035 13.6366C2.85757 12.4834 2.06237 11.1949 1.46948 9.91222C0.873468 8.62279 0.50005 7.37758 0.5 6.30065L6.49997 17.2522ZM6.49997 17.2522C6.66606 17.0636 6.88168 16.8146 7.13227 16.5153C7.73505 15.7954 8.53787 14.7879 9.33964 13.6362C10.1424 12.4829 10.9376 11.1944 11.5305 9.91175C12.1266 8.62226 12.5 7.37713 12.5 6.30044V6.29999C12.501 5.15616 12.1518 4.03643 11.4945 3.08261C10.8372 2.12863 9.9008 1.38291 8.80221 0.942329L6.49997 17.2522ZM1.20616 3.57253C0.742647 4.41269 0.500447 5.34957 0.5 6.30044L1.20616 3.57253ZM1.20616 3.57253C1.66977 2.7322 2.34089 2.01389 3.16149 1.48233M1.20616 3.57253L3.16149 1.48233M3.16149 1.48233C3.98217 0.950726 4.92656 0.622675 5.91114 0.528314M3.16149 1.48233L5.91114 0.528314M5.91114 0.528314C6.89569 0.433955 7.88873 0.576317 8.80209 0.942279L5.91114 0.528314ZM8.4891 8.25002L8.48925 8.24988C8.95176 7.80121 9.24189 7.20839 9.30636 6.5714C9.37084 5.93431 9.2051 5.29667 8.84002 4.76753C8.47519 4.23877 7.93483 3.85209 7.31339 3.6696C6.69213 3.48716 6.02504 3.51901 5.42473 3.7602C4.8242 4.00148 4.32498 4.43857 4.01521 5.00059C3.70524 5.56299 3.60538 6.21383 3.73431 6.84135C3.86319 7.46866 4.21186 8.02998 4.71684 8.4315C5.22151 8.83278 5.85176 9.05044 6.50006 9.05035H6.50026C7.2434 9.04996 7.95902 8.76381 8.4891 8.25002Z" stroke="white"/>
</svg>
