<svg width="18" height="15" viewBox="0 0 18 15" fill="none" xmlns="http://www.w3.org/2000/svg">
<path d="M1 3.27778C1 2.80628 1.1873 2.3541 1.5207 2.0207C1.8541 1.6873 2.30628 1.5 2.77778 1.5H15.2222C15.6937 1.5 16.1459 1.6873 16.4793 2.0207C16.8127 2.3541 17 2.80628 17 3.27778V12.1667C17 12.6382 16.8127 13.0903 16.4793 13.4237C16.1459 13.7571 15.6937 13.9444 15.2222 13.9444H2.77778C2.30628 13.9444 1.8541 13.7571 1.5207 13.4237C1.1873 13.0903 1 12.6382 1 12.1667V3.27778Z" stroke="white" stroke-width="1.2" stroke-linecap="round" stroke-linejoin="round"/>
<path d="M1 3.28125L9 8.61458L17 3.28125" stroke="white" stroke-width="1.2" stroke-linecap="round" stroke-linejoin="round"/>
</svg>
