<svg width="27" height="31" viewBox="0 0 27 31" fill="none" xmlns="http://www.w3.org/2000/svg">
<path d="M18.6761 21.2939L23.0837 26.1657C23.3792 26.4924 23.5097 26.9361 23.4381 27.3708V27.3708C23.2244 28.6667 21.5328 29.0293 20.8068 27.9347L17.375 22.7603" stroke="white" stroke-width="1.2"/>
<path d="M6.50664 16.0303L6.19604 16.5437L6.86066 16.9458L7.08182 16.2012L6.50664 16.0303ZM9.03234 7.52584L9.38843 7.04294L8.7005 6.53566L8.45716 7.35503L9.03234 7.52584ZM16.5276 13.0528L16.1715 13.5357L16.5858 13.8412L16.9508 13.4782L16.5276 13.0528ZM26.1631 4.06639C26.164 3.73502 25.8961 3.46568 25.5647 3.46481L20.1647 3.45058C19.8334 3.4497 19.564 3.71763 19.5631 4.049C19.5623 4.38036 19.8302 4.6497 20.1616 4.65057L24.9615 4.66322L24.9489 9.46321C24.948 9.79458 25.2159 10.0639 25.5473 10.0648C25.8787 10.0657 26.148 9.79774 26.1489 9.46637L26.1631 4.06639ZM1.1901 13.5148L6.19604 16.5437L6.81725 15.517L1.8113 12.4881L1.1901 13.5148ZM7.08182 16.2012L9.60751 7.69666L8.45716 7.35503L5.93147 15.8595L7.08182 16.2012ZM8.67624 8.00875L16.1715 13.5357L16.8837 12.5699L9.38843 7.04294L8.67624 8.00875ZM16.9508 13.4782L25.9863 4.49019L25.14 3.63943L16.1045 12.6274L16.9508 13.4782Z" fill="white"/>
<path d="M23.551 12.0294C23.551 14.7574 22.54 17.3887 20.7133 19.4148C18.8865 21.441 16.3737 22.7182 13.6603 22.9999C10.9468 23.2815 8.22526 22.5475 6.02136 20.9397C3.81745 19.332 2.28759 16.9644 1.72732 14.2946C1.16705 11.6247 1.61613 8.84189 2.9878 6.48378C4.35946 4.12566 6.55638 2.35956 9.15416 1.52665C11.7519 0.693734 14.5662 0.853116 17.0533 1.974" stroke="white" stroke-width="1.22" stroke-linecap="round"/>
</svg>
