<svg width="28" height="28" viewBox="0 0 28 28" fill="none" xmlns="http://www.w3.org/2000/svg">
<path d="M14 12H15.875M14 16H19" stroke="white" stroke-width="1.2"/>
<path d="M13.9639 4.77154V25.49L13.1789 26.1287C11.8342 27.2227 9.90997 27.2356 8.55078 26.1596V26.1596C6.82636 24.7946 6.66772 22.2351 8.21038 20.6675L9.02524 19.8395C7.5848 21.0951 4.21004 22.8531 2.23457 19.8395C-0.234768 16.0725 3.46924 13.5612 4.7039 14.189C5.93857 14.8168 1 15.4447 1 11.0498C1 6.65503 5.93847 4.77154 9.02524 8.53853C7.58483 7.07359 5.44681 3.06101 9.64268 1.63239C11.5 1 14.1697 2.88805 13.9639 4.77154Z" stroke="white" stroke-width="1.2"/>
<path d="M14.0361 4.76876V25.4872L14.8211 26.1259C16.1658 27.2199 18.09 27.2328 19.4492 26.1569V26.1569C21.1736 24.7918 21.3323 22.2323 19.7896 20.6647L18.9748 19.8367C20.4152 21.0924 23.79 22.8503 25.7654 19.8367C28.2348 16.0697 24.5308 13.5584 23.2961 14.1862C22.0614 14.814 27 15.4419 27 11.0471C27 6.65225 22.0615 4.76876 18.9748 8.53574C20.4152 7.07081 21.2146 2.76444 18.3573 1.62961C15.5 0.494774 13.8303 2.88527 14.0361 4.76876Z" stroke="white" stroke-width="1.2"/>
<circle cx="16.5" cy="11.5" r="0.9" stroke="white" stroke-width="1.2"/>
<circle cx="20" cy="16" r="1.4" stroke="white" stroke-width="1.2"/>
</svg>
