<svg width="26" height="24" viewBox="0 0 26 24" fill="none" xmlns="http://www.w3.org/2000/svg">
<path d="M5.92308 12.0769L15.5833 1.20914C15.6745 1.10661 15.8394 1.12418 15.9069 1.2436L18.6799 6.14956M5.92308 12.0769L9.61539 17.6154M5.92308 12.0769L5.24701 11.0628C4.94066 10.6033 4.31979 10.4791 3.86026 10.7855L1.80794 12.1537C1.35793 12.4537 1.228 13.0571 1.51464 13.5157L4.07692 17.6154L7.07743 21.6161C7.44255 22.1029 8.15422 22.1535 8.58453 21.7232L10.2665 20.0412C10.6035 19.7042 10.6558 19.176 10.3914 18.7794L9.61539 17.6154M9.61539 17.6154L23.4899 15.2024C23.6261 15.1787 23.6977 15.0273 23.6297 14.907L21.2245 10.6517M18.6799 6.14956L19.4615 2.23077M18.6799 6.14956L21.2245 10.6517M21.2245 10.6517H25" stroke="white" stroke-width="1.2" stroke-linecap="round"/>
<path d="M14.5382 17L17.3869 20.9444C17.7953 21.5099 17.5138 22.3093 16.8411 22.4941L14.6277 23.1022C14.2079 23.2175 13.7616 23.048 13.5244 22.6829L10.2305 17.6154" stroke="white" stroke-width="1.2"/>
</svg>
