<svg width="29" height="25" viewBox="0 0 29 25" fill="none" xmlns="http://www.w3.org/2000/svg">
<path d="M8.44685 17.1307H6.13383C3.2985 17.1307 1 14.8322 1 11.9968V11.9968C1 9.10058 3.3944 6.77765 6.28933 6.86537L7.14365 6.89126C7.63616 3.82894 11.4175 -1.31586 17.9416 2.16266C18.8257 2.63405 19.7102 3.7072 20.0826 5.12234C21.1369 4.7192 23.5425 4.67558 24.7347 7.72337C24.736 7.72653 24.7391 7.72874 24.7425 7.72874V7.72874C26.7443 7.72874 28.3672 9.35158 28.3672 11.3534V12.6157C28.3672 15.3147 26.1792 17.5027 23.4802 17.5027H21.7581" stroke="white" stroke-width="1.2"/>
<path d="M17.7551 12.313V20.5976H21.4786M14.2179 12.313V22.5524M11.053 12.313V20.5976H8.07422" stroke="white" stroke-width="1.2"/>
<circle cx="21.9309" cy="20.5949" r="0.6" stroke="white" stroke-width="0.661713"/>
<circle cx="14.218" cy="23.2092" r="0.6" stroke="white" stroke-width="0.661713"/>
<circle cx="7.32929" cy="20.5969" r="0.6" stroke="white" stroke-width="0.661713"/>
</svg>
