<svg width="37" height="43" viewBox="0 0 37 43" fill="none" xmlns="http://www.w3.org/2000/svg">
<path d="M27.0129 10.6471V6.57119M1.42188 32.6833V6.57119M1.42188 6.57119V6.57119C1.42188 3.49431 3.91618 1 6.99306 1H21.4417C24.5186 1 27.0129 3.49431 27.0129 6.57119V6.57119M1.42188 6.57119H27.0129" stroke="#54372A" stroke-width="1.5" stroke-linecap="round"/>
<path d="M16.622 9.16406L12.2515 18.8812M19.4257 11.2138L22.5593 13.9467L19.4257 16.7556M9.86012 11.2138L6.72656 13.9467L9.86012 16.7556M25.2805 18.198V16.1483H28.4141V18.198L30.4756 18.8812L32.2898 17.5148L34.5163 19.6404L33.1144 21.1587L33.7741 22.8288H36.0006V25.7136H33.7741L33.1144 27.6115L34.5163 29.2816L32.2898 31.1795L30.4756 29.7371L28.4141 30.6481V32.3942H26.3525L26.0227 30.6481L23.7138 29.7371L21.8578 31.1795L20.0854 29.2816L21.5697 28.067L20.4977 26.1691H18.1888V23.2084H20.0854L21.075 21.1587L19.4257 19.6404L21.5697 17.5148L23.219 18.8812L25.2805 18.198Z" stroke="#54372A" stroke-width="1.5"/>
<path d="M27.0943 33.9766V35.419M27.0943 35.419V35.419C27.0943 39.1924 24.0353 42.2513 20.2619 42.2513H8.77573C5.00232 42.2513 1.94336 39.1924 1.94336 35.419V35.419H27.0943Z" stroke="#54372A" stroke-width="1.5"/>
<path d="M30.205 24.4028C30.205 25.9359 28.8354 27.2822 27.0127 27.2822C25.19 27.2822 23.8203 25.9359 23.8203 24.4028C23.8203 22.8698 25.19 21.5234 27.0127 21.5234C28.8354 21.5234 30.205 22.8698 30.205 24.4028Z" stroke="#54372A" stroke-width="1.5"/>
<path d="M18.2713 39.1484H11.0146" stroke="#54372A" stroke-width="1.5"/>
<path d="M18.2713 4.09375H11.0146" stroke="#54372A" stroke-width="1.5"/>
</svg>
