<svg width="16" height="16" viewBox="0 0 16 16" fill="none" xmlns="http://www.w3.org/2000/svg">
<mask id="path-1-inside-1_932_940" fill="white">
<path d="M14.9092 13.5204L15.3431 13.9805L14.9083 13.5204H14.9092ZM4.56727 11.6558L5.00044 11.1957L4.56645 11.6558H4.56727ZM1.18233 2.49517L0.749162 2.03593L1.18315 2.49603L1.18233 2.49517ZM10.9762 10.9327L11.3511 10.541L10.4823 9.62075L10.1099 10.0125L10.9762 10.9327ZM12.6055 10.3766L14.1733 11.2752L14.7598 10.1353L13.1929 9.23762L12.6055 10.3766ZM14.4744 13.0603L13.3094 14.2823L14.1765 15.2017L15.3415 13.9805L14.4744 13.0603ZM12.5989 14.675C11.4094 14.7926 8.33288 14.688 5.00044 11.1957L4.13247 12.115C7.76845 15.9264 11.2297 16.1133 12.7138 15.9671L12.5981 14.675H12.5989ZM5.00044 11.1957C1.8247 7.86595 1.29801 5.0664 1.23237 3.85127L0.00342379 3.92478C0.0854632 5.45386 0.737677 8.55697 4.13247 12.115L5.00044 11.1957ZM6.12848 5.85083L6.36394 5.60348L5.4976 4.68413L5.26215 4.93062L6.1293 5.84996L6.12848 5.85083ZM6.55099 2.45971L5.51729 1.00329L4.532 1.78166L5.56569 3.23722L6.55099 2.45971ZM2.038 0.685882L0.749982 2.03506L1.61796 2.95527L2.90516 1.60609L2.038 0.685882ZM5.69532 5.39072C5.26051 4.93062 5.26051 4.93062 5.26051 4.93235H5.25887L5.25641 4.9358C5.21767 4.97748 5.18278 5.02295 5.15222 5.07159C5.10791 5.14078 5.05951 5.23159 5.01849 5.34661C4.91859 5.64353 4.89371 5.96275 4.9463 6.27288C5.05623 7.02098 5.54518 8.00952 6.79711 9.32237L7.66508 8.40216C6.49274 7.17406 6.21381 6.42682 6.16212 6.07396C6.13751 5.90618 6.16294 5.82315 6.17032 5.80412C6.17443 5.79202 6.17607 5.79115 6.17032 5.79894C6.16309 5.81093 6.15485 5.82222 6.14571 5.83266L6.13751 5.84131C6.13486 5.844 6.13212 5.8466 6.1293 5.8491L5.6945 5.39072H5.69532ZM6.79711 9.32237C8.04985 10.6352 8.99248 11.1472 9.70294 11.2614C10.0664 11.3202 10.3593 11.2735 10.5816 11.1861C10.7059 11.1376 10.8222 11.0688 10.9261 10.982C10.9403 10.9696 10.9539 10.9566 10.9672 10.9431L10.9729 10.9379L10.9754 10.9353L10.9762 10.9336C10.9762 10.9336 10.977 10.9327 10.543 10.4726C10.1082 10.0125 10.1107 10.0117 10.1107 10.0117L10.1123 10.0099L10.114 10.0082L10.1189 10.0039L10.1271 9.99524C10.1369 9.9859 10.1474 9.97724 10.1583 9.96929C10.1665 9.96324 10.164 9.96583 10.1525 9.97102C10.132 9.9788 10.0516 10.0056 9.88999 9.97967C9.55035 9.92432 8.8366 9.63027 7.66508 8.40216L6.79711 9.32237ZM5.51729 1.00242C4.68049 -0.173789 3.03642 -0.360599 2.038 0.685882L2.90516 1.60609C3.34161 1.14858 4.11606 1.19615 4.532 1.78166L5.51647 1.00242H5.51729ZM1.23319 3.85213C1.21679 3.55289 1.34723 3.23981 1.61796 2.95614L0.749162 2.03593C0.30861 2.49776 -0.0384163 3.1516 0.00342379 3.92478L1.23319 3.85213ZM13.3094 14.2823C13.0846 14.5193 12.8418 14.6525 12.5998 14.6759L12.7138 15.9671C13.3168 15.9074 13.8098 15.5874 14.1774 15.2026L13.3094 14.2823ZM6.36394 5.60348C7.17202 4.75678 7.23191 3.41884 6.55181 2.46057L5.56651 3.23808C5.89713 3.70424 5.84791 4.3157 5.49678 4.685L6.36394 5.60348ZM14.1741 11.2761C14.8443 11.6601 14.9485 12.5647 14.4752 13.0612L15.3431 13.9805C16.4425 12.8277 16.1037 10.9051 14.7607 10.1362L14.1741 11.2761ZM11.3511 10.5418C11.6661 10.2115 12.1731 10.1302 12.6063 10.3775L13.1937 9.23848C12.3044 8.72822 11.2018 8.86919 10.4831 9.62162L11.3511 10.5418Z"/>
</mask>
<path d="M14.9092 13.5204L15.3431 13.9805L14.9083 13.5204H14.9092ZM4.56727 11.6558L5.00044 11.1957L4.56645 11.6558H4.56727ZM1.18233 2.49517L0.749162 2.03593L1.18315 2.49603L1.18233 2.49517ZM10.9762 10.9327L11.3511 10.541L10.4823 9.62075L10.1099 10.0125L10.9762 10.9327ZM12.6055 10.3766L14.1733 11.2752L14.7598 10.1353L13.1929 9.23762L12.6055 10.3766ZM14.4744 13.0603L13.3094 14.2823L14.1765 15.2017L15.3415 13.9805L14.4744 13.0603ZM12.5989 14.675C11.4094 14.7926 8.33288 14.688 5.00044 11.1957L4.13247 12.115C7.76845 15.9264 11.2297 16.1133 12.7138 15.9671L12.5981 14.675H12.5989ZM5.00044 11.1957C1.8247 7.86595 1.29801 5.0664 1.23237 3.85127L0.00342379 3.92478C0.0854632 5.45386 0.737677 8.55697 4.13247 12.115L5.00044 11.1957ZM6.12848 5.85083L6.36394 5.60348L5.4976 4.68413L5.26215 4.93062L6.1293 5.84996L6.12848 5.85083ZM6.55099 2.45971L5.51729 1.00329L4.532 1.78166L5.56569 3.23722L6.55099 2.45971ZM2.038 0.685882L0.749982 2.03506L1.61796 2.95527L2.90516 1.60609L2.038 0.685882ZM5.69532 5.39072C5.26051 4.93062 5.26051 4.93062 5.26051 4.93235H5.25887L5.25641 4.9358C5.21767 4.97748 5.18278 5.02295 5.15222 5.07159C5.10791 5.14078 5.05951 5.23159 5.01849 5.34661C4.91859 5.64353 4.89371 5.96275 4.9463 6.27288C5.05623 7.02098 5.54518 8.00952 6.79711 9.32237L7.66508 8.40216C6.49274 7.17406 6.21381 6.42682 6.16212 6.07396C6.13751 5.90618 6.16294 5.82315 6.17032 5.80412C6.17443 5.79202 6.17607 5.79115 6.17032 5.79894C6.16309 5.81093 6.15485 5.82222 6.14571 5.83266L6.13751 5.84131C6.13486 5.844 6.13212 5.8466 6.1293 5.8491L5.6945 5.39072H5.69532ZM6.79711 9.32237C8.04985 10.6352 8.99248 11.1472 9.70294 11.2614C10.0664 11.3202 10.3593 11.2735 10.5816 11.1861C10.7059 11.1376 10.8222 11.0688 10.9261 10.982C10.9403 10.9696 10.9539 10.9566 10.9672 10.9431L10.9729 10.9379L10.9754 10.9353L10.9762 10.9336C10.9762 10.9336 10.977 10.9327 10.543 10.4726C10.1082 10.0125 10.1107 10.0117 10.1107 10.0117L10.1123 10.0099L10.114 10.0082L10.1189 10.0039L10.1271 9.99524C10.1369 9.9859 10.1474 9.97724 10.1583 9.96929C10.1665 9.96324 10.164 9.96583 10.1525 9.97102C10.132 9.9788 10.0516 10.0056 9.88999 9.97967C9.55035 9.92432 8.8366 9.63027 7.66508 8.40216L6.79711 9.32237ZM5.51729 1.00242C4.68049 -0.173789 3.03642 -0.360599 2.038 0.685882L2.90516 1.60609C3.34161 1.14858 4.11606 1.19615 4.532 1.78166L5.51647 1.00242H5.51729ZM1.23319 3.85213C1.21679 3.55289 1.34723 3.23981 1.61796 2.95614L0.749162 2.03593C0.30861 2.49776 -0.0384163 3.1516 0.00342379 3.92478L1.23319 3.85213ZM13.3094 14.2823C13.0846 14.5193 12.8418 14.6525 12.5998 14.6759L12.7138 15.9671C13.3168 15.9074 13.8098 15.5874 14.1774 15.2026L13.3094 14.2823ZM6.36394 5.60348C7.17202 4.75678 7.23191 3.41884 6.55181 2.46057L5.56651 3.23808C5.89713 3.70424 5.84791 4.3157 5.49678 4.685L6.36394 5.60348ZM14.1741 11.2761C14.8443 11.6601 14.9485 12.5647 14.4752 13.0612L15.3431 13.9805C16.4425 12.8277 16.1037 10.9051 14.7607 10.1362L14.1741 11.2761ZM11.3511 10.5418C11.6661 10.2115 12.1731 10.1302 12.6063 10.3775L13.1937 9.23848C12.3044 8.72822 11.2018 8.86919 10.4831 9.62162L11.3511 10.5418Z" fill="white"/>
<path d="M2.90516 1.60609L2.17835 2.29294L3.63293 0.920278L2.90516 1.60609ZM11.2711 9.78717L10.838 9.32706L9.38176 10.698L9.81492 11.1581L11.2711 9.78717ZM10.1897 10.767L10.6237 11.2271L12.0786 9.8548L11.6446 9.3947L10.1897 10.767ZM12.0108 9.34917L11.7171 9.91998L13.4955 10.835L13.7892 10.2642L12.0108 9.34917ZM13.5781 10.2472L13.2844 10.8172L15.0622 11.7333L15.3559 11.1634L13.5781 10.2472ZM14.4704 14.0541L14.0356 13.5948L12.5832 14.9699L13.018 15.4291L14.4704 14.0541ZM11.6603 15.4096L11.7177 16.0556L13.7099 15.8786L13.6524 15.2325L11.6603 15.4096ZM0.558887 2.8902L-0.0555877 2.92653L0.0624353 4.92304L0.67691 4.88672L0.558887 2.8902ZM5.20232 5.83022L5.63713 6.29032L7.09074 4.91663L6.65593 4.45653L5.20232 5.83022ZM6.67729 3.63314L7.16953 3.24481L5.9308 1.67461L5.43857 2.06293L6.67729 3.63314ZM4.40548 0.607537L3.91242 0.996724L5.15158 2.5666L5.64463 2.17741L4.40548 0.607537ZM1.74354 1.83283L2.17835 2.29294L3.63196 0.919249L3.19715 0.459144L1.74354 1.83283ZM7.95773 9.54843L8.39171 9.08832L6.93681 7.71601L6.50282 8.17611L7.95773 9.54843ZM4.27331 10.5092L3.40534 11.4285L4.8596 12.8015L5.72757 11.8822L4.27331 10.5092ZM3.63293 0.920278L2.76578 6.65814e-05L1.31022 1.3717L2.17738 2.29191L3.63293 0.920278ZM7.52456 10.0085L8.39253 9.08832L6.93763 7.71601L6.06965 8.63622L7.52456 10.0085ZM10.543 10.4726L11.9979 9.10032L11.9966 9.09895L10.543 10.4726ZM10.1099 10.0125L8.66035 8.63452L7.35667 10.0058L8.65366 11.3835L10.1099 10.0125ZM11.3511 10.541L12.7961 11.9237L14.1104 10.5503L12.8054 9.16796L11.3511 10.541ZM12.6063 10.3775L11.6146 12.1143L13.4272 13.1493L14.3839 11.2942L12.6063 10.3775ZM14.1733 11.2752L13.1787 13.0104L14.9942 14.051L15.9516 12.1904L14.1733 11.2752ZM14.9092 13.5204L16.3641 12.1481L15.772 11.5204H14.9092V13.5204ZM15.3431 13.9805L13.8895 15.3542L15.3366 16.8855L16.7906 15.3607L15.3431 13.9805ZM14.9083 13.5204V11.5204H10.2665L13.4547 14.8941L14.9083 13.5204ZM13.3094 14.2823L11.8618 12.9023L11.8584 12.9059L13.3094 14.2823ZM12.7138 15.9671L12.9098 17.9575L12.9108 17.9574L12.7138 15.9671ZM4.56727 11.6558V13.6558H5.43125L6.02347 13.0267L4.56727 11.6558ZM4.56645 11.6558L3.11155 10.2834L-0.069347 13.6558H4.56645V11.6558ZM2.90516 1.60609L4.35222 2.98668L4.35229 2.98661L2.90516 1.60609ZM1.18233 2.49517L-0.272587 3.86748L-0.268633 3.87165L1.18233 2.49517ZM0.749162 2.03593L2.20342 0.662925L0.756642 -0.869469L-0.698005 0.655455L0.749162 2.03593ZM1.18315 2.49603L-0.267812 3.87252L2.63805 1.12372L1.18315 2.49603ZM10.9762 10.9327L9.51999 12.3037L10.9643 13.8379L12.4212 12.3155L10.9762 10.9327ZM10.4823 9.62075L11.9366 8.24775L10.4873 6.71275L9.0328 8.24274L10.4823 9.62075ZM12.6055 10.3766L10.8279 9.45995L9.95101 11.1604L11.6109 12.1118L12.6055 10.3766ZM14.7598 10.1353L16.5382 11.0505L17.413 9.35041L15.7541 8.39997L14.7598 10.1353ZM13.1929 9.23762L14.1871 7.50224L12.3734 6.46315L11.4153 8.32092L13.1929 9.23762ZM14.4744 13.0603L15.9299 11.6887L14.4827 10.153L13.0267 11.6803L14.4744 13.0603ZM14.1765 15.2017L12.7216 16.574L14.1683 18.1078L15.6237 16.5822L14.1765 15.2017ZM15.3415 13.9805L16.7886 15.361L18.0976 13.9889L16.7971 12.6089L15.3415 13.9805ZM12.5989 14.675L12.7957 16.6653L12.5989 12.675V14.675ZM4.13247 12.115L5.5796 10.7345L5.57949 10.7344L4.13247 12.115ZM12.5981 14.675V12.675H10.4111L10.6061 14.8533L12.5981 14.675ZM1.23237 3.85127L3.22946 3.7434L3.12097 1.73472L1.11295 1.85484L1.23237 3.85127ZM6.12848 5.85083L4.67738 4.47449L7.57711 7.22977L6.12848 5.85083ZM5.4976 4.68413L6.95316 3.3125L5.50747 1.77835L4.05139 3.30265L5.4976 4.68413ZM5.26215 4.93062L3.81594 3.54914L2.50462 4.92191L3.80724 6.30293L5.26215 4.93062ZM6.1293 5.84996L7.58041 7.2263L8.88221 5.85377L7.58421 4.47765L6.1293 5.84996ZM6.55099 2.45971L7.78993 4.02975L9.28213 2.85223L8.18195 1.30214L6.55099 2.45971ZM5.51729 1.00329L7.14825 -0.154286L5.92963 -1.87125L4.2775 -0.566084L5.51729 1.00329ZM5.56569 3.23722L3.93506 4.39525L5.15316 6.11046L6.80464 4.80726L5.56569 3.23722ZM2.038 0.685882L3.48462 2.06692L3.48505 2.06648L2.038 0.685882ZM0.749982 2.03506L-0.696642 0.654021L-2.00716 2.02677L-0.704921 3.40738L0.749982 2.03506ZM1.61796 2.95527L0.163056 4.32759L1.60968 5.86128L3.06502 4.33586L1.61796 2.95527ZM5.69532 5.39072V7.39072H10.3371L7.14893 4.01703L5.69532 5.39072ZM5.26051 4.93235V6.93235H7.26051V4.93235H5.26051ZM5.25887 4.93235V2.93235H4.22732L3.62928 3.77284L5.25887 4.93235ZM5.25641 4.9358L6.72137 6.29737L6.81028 6.20172L6.88599 6.09531L5.25641 4.9358ZM5.15222 5.07159L6.83653 6.15005L6.84109 6.14293L6.84559 6.13578L5.15222 5.07159ZM5.01849 5.34661L3.13469 4.67483L3.12864 4.69178L3.12291 4.70884L5.01849 5.34661ZM4.9463 6.27288L6.92505 5.9821L6.92184 5.96028L6.91815 5.93853L4.9463 6.27288ZM6.79711 9.32237L5.3497 10.7026L5.35015 10.7031L6.79711 9.32237ZM7.66508 8.40216L9.11224 7.02168L9.11175 7.02117L7.66508 8.40216ZM6.16212 6.07396L8.14101 5.78411L8.14094 5.78369L6.16212 6.07396ZM6.17032 5.80412L8.03486 6.52767L8.05061 6.48709L8.06457 6.44586L6.17032 5.80412ZM6.17032 5.79894L4.56094 4.61155L4.50579 4.6863L4.45781 4.76584L6.17032 5.79894ZM6.14571 5.83266L7.5967 7.20912L7.62446 7.17986L7.65102 7.1495L6.14571 5.83266ZM6.13751 5.84131L7.56151 7.24567L7.57514 7.23185L7.5885 7.21777L6.13751 5.84131ZM6.1293 5.8491L4.67828 7.22552L6.0097 8.6291L7.45675 7.34506L6.1293 5.8491ZM5.6945 5.39072V3.39072H1.04064L4.24347 6.76714L5.6945 5.39072ZM9.70294 11.2614L10.0224 9.28707L10.0202 9.28672L9.70294 11.2614ZM10.5816 11.1861L9.85464 9.32293L9.85022 9.32467L10.5816 11.1861ZM10.9261 10.982L12.2073 12.5178L12.2282 12.5004L12.2486 12.4824L10.9261 10.982ZM10.9672 10.9431L9.62635 9.45914L9.58115 9.49997L9.53853 9.54348L10.9672 10.9431ZM10.9729 10.9379L12.3137 12.4219L12.3709 12.3703L12.4239 12.3144L10.9729 10.9379ZM10.9754 10.9353L12.4264 12.3118L12.646 12.0803L12.7826 11.792L10.9754 10.9353ZM10.9762 10.9336L9.52548 9.55686L9.30569 9.78846L9.16893 10.077L10.9762 10.9336ZM10.1107 10.0117L10.7739 11.8985L11.2292 11.7384L11.5615 11.3883L10.1107 10.0117ZM10.1123 10.0099L11.5631 11.3866L11.5638 11.3859L10.1123 10.0099ZM10.114 10.0082L8.79412 8.50553L8.72542 8.56587L8.66252 8.63223L10.114 10.0082ZM10.1189 10.0039L11.4387 11.5066L11.5072 11.4464L11.5699 11.3803L10.1189 10.0039ZM10.1271 9.99524L8.75238 8.54259L8.71321 8.57966L8.67609 8.61878L10.1271 9.99524ZM10.1583 9.96929L11.3365 11.5854L11.3458 11.5786L10.1583 9.96929ZM10.1525 9.97102L10.8622 11.8409L10.9198 11.819L10.976 11.7936L10.1525 9.97102ZM9.88999 9.97967L9.5683 11.9536L9.57297 11.9544L9.88999 9.97967ZM5.51729 1.00242V3.00242H9.39467L7.14695 -0.156982L5.51729 1.00242ZM5.51647 1.00242V-0.997579H4.82073L4.2752 -0.565775L5.51647 1.00242ZM1.23319 3.85213L1.35114 5.84865L3.33923 5.73121L3.23019 3.74264L1.23319 3.85213ZM1.61796 2.95614L3.0648 4.33696L4.37552 2.96357L3.07222 1.58314L1.61796 2.95614ZM12.5998 14.6759L12.4077 12.6851L10.433 12.8756L10.6075 14.8518L12.5998 14.6759ZM14.1774 15.2026L15.6238 16.5838L16.9347 15.2111L15.6323 13.8302L14.1774 15.2026ZM6.55181 2.46057L8.18278 1.30303L6.96483 -0.413057L5.31286 0.890536L6.55181 2.46057ZM5.56651 3.23808L4.32757 1.66804L2.83588 2.84516L3.93516 4.3951L5.56651 3.23808ZM5.49678 4.685L4.04737 3.30688L2.74166 4.68014L4.04252 6.05799L5.49678 4.685ZM14.1741 11.2761L12.3957 10.361L11.5209 12.061L13.1799 13.0115L14.1741 11.2761ZM14.4752 13.0612L13.0277 11.681L11.7182 13.0543L13.0209 14.4342L14.4752 13.0612ZM14.7607 10.1362L15.7543 8.40053L13.9393 7.3614L12.9823 9.22108L14.7607 10.1362ZM11.3511 10.5418L9.89621 11.9141L11.3432 13.4482L12.7985 11.922L11.3511 10.5418ZM13.1937 9.23848L14.9713 10.1552L15.8478 8.4555L14.1891 7.50376L13.1937 9.23848ZM10.4831 9.62162L9.03684 8.24022L7.72568 9.61299L9.02823 10.9939L10.4831 9.62162ZM13.4543 14.8927L13.8882 15.3528L16.7981 12.6082L16.3641 12.1481L13.4543 14.8927ZM16.7968 12.6068L16.3619 12.1467L13.4547 14.8941L13.8895 15.3542L16.7968 12.6068ZM14.9083 15.5204H14.9092V11.5204H14.9083V15.5204ZM6.02347 13.0267L6.45664 12.5666L3.54424 9.82472L3.11108 10.2848L6.02347 13.0267ZM3.54554 9.82334L3.11155 10.2834L6.02136 13.0281L6.45534 12.568L3.54554 9.82334ZM4.56645 13.6558H4.56727V9.65577H4.56645V13.6558ZM2.63724 1.12286L2.20407 0.663619L-0.705749 3.40824L-0.272581 3.86748L2.63724 1.12286ZM-0.705742 3.40825L-0.271754 3.86835L2.63805 1.12372L2.20407 0.663611L-0.705742 3.40825ZM2.63411 1.11955L2.63329 1.11869L-0.268633 3.87165L-0.267812 3.87252L2.63411 1.11955ZM12.4212 12.3155L12.7961 11.9237L9.90614 9.15819L9.53122 9.54997L12.4212 12.3155ZM12.8054 9.16796L11.9366 8.24775L9.02806 10.9938L9.89685 11.914L12.8054 9.16796ZM9.0328 8.24274L8.66035 8.63452L11.5594 11.3905L11.9318 10.9988L9.0328 8.24274ZM8.65366 11.3835L9.51999 12.3037L12.4324 9.5618L11.5661 8.64159L8.65366 11.3835ZM11.6109 12.1118L13.1787 13.0104L15.1678 9.54004L13.6 8.64145L11.6109 12.1118ZM15.9516 12.1904L16.5382 11.0505L12.9815 9.22021L12.3949 10.3601L15.9516 12.1904ZM15.7541 8.39997L14.1871 7.50224L12.1987 10.973L13.7656 11.8707L15.7541 8.39997ZM11.4153 8.32092L10.8279 9.45995L14.383 11.2933L14.9704 10.1543L11.4153 8.32092ZM13.0267 11.6803L11.8618 12.9023L14.757 15.6623L15.922 14.4403L13.0267 11.6803ZM11.8545 15.6547L12.7216 16.574L15.6315 13.8294L14.7643 12.91L11.8545 15.6547ZM15.6237 16.5822L16.7886 15.361L13.8944 12.6L12.7294 13.8212L15.6237 16.5822ZM16.7971 12.6089L15.9299 11.6887L13.0188 14.4319L13.886 15.3521L16.7971 12.6089ZM12.4021 12.6847C11.73 12.7512 9.29302 12.7971 6.44739 9.81495L3.5535 12.5764C7.37274 16.5788 11.0887 16.8341 12.7957 16.6653L12.4021 12.6847ZM2.68534 13.4955C6.80903 17.8182 10.9103 18.1544 12.9098 17.9575L12.5178 13.9767C11.5491 14.0721 8.72787 14.0347 5.5796 10.7345L2.68534 13.4955ZM14.7058 15.7888L14.5901 14.4967L10.6061 14.8533L10.7218 16.1454L14.7058 15.7888ZM12.5981 16.675H12.5989V12.675H12.5981V16.675ZM6.44772 9.81531C3.61535 6.84562 3.27051 4.50345 3.22946 3.7434L-0.764715 3.95914C-0.674504 5.62934 0.0340423 8.88628 3.55316 12.576L6.44772 9.81531ZM1.11295 1.85484L-0.115999 1.92835L0.122846 5.92121L1.3518 5.8477L1.11295 1.85484ZM-1.9937 4.03194C-1.88722 6.01668 -1.05291 9.57752 2.68545 13.4956L5.57949 10.7344C2.52826 7.53643 2.05814 4.89103 2.00055 3.81763L-1.9937 4.03194ZM7.57711 7.22977L7.81256 6.98242L4.91531 4.22453L4.67986 4.47188L7.57711 7.22977ZM7.81949 4.23185L6.95316 3.3125L4.04205 6.05576L4.90838 6.9751L7.81949 4.23185ZM4.05139 3.30265L3.81594 3.54914L6.70836 6.31209L6.94381 6.06561L4.05139 3.30265ZM3.80724 6.30293L4.6744 7.22228L7.58421 4.47765L6.71705 3.5583L3.80724 6.30293ZM4.6782 4.47363L4.67738 4.47449L7.57959 7.22716L7.58041 7.2263L4.6782 4.47363ZM8.18195 1.30214L7.14825 -0.154286L3.88633 2.16086L4.92003 3.61728L8.18195 1.30214ZM4.2775 -0.566084L3.29221 0.21229L5.77179 3.35103L6.75708 2.57266L4.2775 -0.566084ZM2.90136 2.93969L3.93506 4.39525L7.19633 2.07919L6.16263 0.62363L2.90136 2.93969ZM6.80464 4.80726L7.78993 4.02975L5.31205 0.88967L4.32675 1.66718L6.80464 4.80726ZM0.591376 -0.695161L-0.696642 0.654021L2.19661 3.41611L3.48462 2.06692L0.591376 -0.695161ZM-0.704921 3.40738L0.163056 4.32759L3.07286 1.58296L2.20489 0.662746L-0.704921 3.40738ZM3.06502 4.33586L4.35222 2.98668L1.45809 0.225511L0.170896 1.57469L3.06502 4.33586ZM7.14893 4.01703C6.93252 3.78804 6.82192 3.671 6.76588 3.61192C6.74178 3.58651 6.71677 3.56019 6.69707 3.54005C6.69122 3.53407 6.67984 3.52248 6.66576 3.50863C6.65848 3.50148 6.61995 3.46336 6.56826 3.41873C6.5453 3.39892 6.48133 3.34419 6.39273 3.28338C6.37882 3.27383 6.05932 3.03599 5.58253 2.95823C5.28693 2.91002 4.77415 2.89879 4.24864 3.20704C3.71995 3.51716 3.48055 3.97329 3.37976 4.25196C3.28619 4.51065 3.26985 4.72682 3.2651 4.79681C3.26192 4.84363 3.26107 4.88096 3.26076 4.90062C3.26059 4.91115 3.26054 4.91962 3.26052 4.92456C3.26052 4.92651 3.26051 4.92943 3.26051 4.93041C3.26051 4.93137 3.26051 4.93234 3.26051 4.93235H7.26051C7.26051 4.91655 7.26137 4.98741 7.25592 5.06772C7.25117 5.13767 7.23484 5.35379 7.14128 5.61245C7.04051 5.89108 6.80112 6.34718 6.27246 6.65728C5.74698 6.96551 5.23425 6.95428 4.93869 6.90607C4.46201 6.82833 4.14267 6.59057 4.129 6.58118C4.04064 6.52053 3.97699 6.46606 3.95446 6.44661C3.90361 6.40272 3.86635 6.3658 3.86099 6.36052C3.84882 6.34855 3.83999 6.33953 3.83753 6.33702C3.83142 6.33077 3.83359 6.33288 3.86384 6.36477C3.9165 6.42029 4.0233 6.5333 4.24171 6.76441L7.14893 4.01703ZM5.26051 2.93235H5.25887V6.93235H5.26051V2.93235ZM3.62928 3.77284L3.62682 3.7763L6.88599 6.09531L6.88845 6.09185L3.62928 3.77284ZM3.79144 3.57424C3.6666 3.70856 3.55542 3.85373 3.45885 4.0074L6.84559 6.13578C6.81015 6.19216 6.76874 6.2464 6.72137 6.29737L3.79144 3.57424ZM3.4679 3.99313C3.35064 4.17625 3.23175 4.40265 3.13469 4.67483L6.90229 6.0184C6.88727 6.06052 6.86518 6.1053 6.83653 6.15005L3.4679 3.99313ZM3.12291 4.70884C2.91732 5.31988 2.86692 5.97312 2.97444 6.60722L6.91815 5.93853C6.9205 5.95239 6.91986 5.96719 6.91408 5.98439L3.12291 4.70884ZM2.96755 6.56365C3.16339 7.89641 3.96543 9.25095 5.3497 10.7026L8.24451 7.94215C7.12493 6.76808 6.94906 6.14555 6.92505 5.9821L2.96755 6.56365ZM9.11175 7.02117C8.07244 5.93243 8.10696 5.55166 8.14101 5.78411L4.18324 6.36381C4.32065 7.30198 4.91303 8.41569 6.21841 9.78316L9.11175 7.02117ZM8.14094 5.78369C8.1594 5.90952 8.1692 6.18149 8.03486 6.52767L4.30579 5.08058C4.15669 5.46481 4.11562 5.90284 4.1833 6.36423L8.14094 5.78369ZM8.06457 6.44586C8.05453 6.47551 8.04538 6.49996 8.03893 6.51668C8.03757 6.5202 8.03652 6.5229 8.0363 6.52347C8.03538 6.52583 8.03728 6.52096 8.0388 6.51703C8.03997 6.51402 8.0461 6.49822 8.05344 6.47805C8.05629 6.47021 8.08096 6.40362 8.10437 6.31727C8.11383 6.28237 8.14537 6.16522 8.1622 6.01124C8.1704 5.9362 8.18373 5.77995 8.16293 5.58344C8.1462 5.42527 8.08343 4.97898 7.73562 4.54432C7.28869 3.9858 6.63225 3.76067 6.04692 3.79794C5.58978 3.82705 5.26921 4.00546 5.1564 4.07213C4.91091 4.21722 4.75587 4.38321 4.73279 4.4072C4.64357 4.49992 4.58207 4.58315 4.5791 4.58708C4.56218 4.60943 4.54936 4.62738 4.54665 4.63117C4.52735 4.65816 4.55125 4.62469 4.56094 4.61155L7.77971 6.98632C7.79227 6.96929 7.81812 6.93301 7.8 6.95835C7.79758 6.96172 7.78501 6.97934 7.76829 7.00142C7.76552 7.00509 7.70418 7.08812 7.61507 7.18073C7.59204 7.20466 7.43705 7.37061 7.19159 7.51568C7.0788 7.58234 6.75825 7.76074 6.30112 7.78985C5.7158 7.82713 5.05937 7.602 4.61245 7.04348C4.26464 6.60883 4.20188 6.16256 4.18515 6.0044C4.16435 5.80792 4.17768 5.65169 4.18588 5.57667C4.2027 5.42275 4.23423 5.30567 4.24366 5.27087C4.26702 5.18471 4.29161 5.11838 4.29433 5.11089C4.30154 5.09107 4.30751 5.07569 4.30848 5.07319C4.3098 5.06977 4.31148 5.06548 4.3103 5.0685C4.30982 5.06974 4.30847 5.07319 4.30679 5.07754C4.29906 5.09759 4.28817 5.12669 4.27608 5.16239L8.06457 6.44586ZM4.45781 4.76584C4.51067 4.67821 4.57163 4.59445 4.64041 4.51583L7.65102 7.1495C7.73807 7.04998 7.81551 6.94364 7.88284 6.83203L4.45781 4.76584ZM4.69472 4.45621L4.68652 4.46486L7.5885 7.21777L7.5967 7.20912L4.69472 4.45621ZM4.7135 4.43696C4.74185 4.40822 4.77131 4.38025 4.80186 4.35314L7.45675 7.34506C7.49293 7.31295 7.52786 7.27979 7.56151 7.24567L4.7135 4.43696ZM7.58033 4.47268L7.14552 4.0143L4.24347 6.76714L4.67828 7.22552L7.58033 4.47268ZM5.6945 7.39072H5.69532V3.39072H5.6945V7.39072ZM5.35015 10.7031C6.72351 12.1423 8.04191 13.0201 9.38564 13.2361L10.0202 9.28672C9.94305 9.27432 9.37618 9.12812 8.24406 7.94168L5.35015 10.7031ZM9.38346 13.2357C10.092 13.3504 10.7485 13.2694 11.3129 13.0476L9.85022 9.32467C9.90546 9.30297 9.95292 9.29299 9.98811 9.28933C10.0235 9.28564 10.0366 9.28936 10.0224 9.28707L9.38346 13.2357ZM11.3085 13.0494C11.637 12.9212 11.9399 12.7409 12.2073 12.5178L9.64501 9.44624C9.70446 9.39665 9.77483 9.35407 9.85464 9.32294L11.3085 13.0494ZM12.2486 12.4824C12.2994 12.4376 12.3485 12.391 12.3958 12.3428L9.53853 9.54348C9.55935 9.52223 9.58108 9.5016 9.6037 9.48167L12.2486 12.4824ZM12.308 12.4271L12.3137 12.4219L9.63209 9.45395L9.62635 9.45914L12.308 12.4271ZM12.4239 12.3144L12.4264 12.3118L9.52436 9.55891L9.5219 9.5615L12.4239 12.3144ZM12.7826 11.792L12.7835 11.7902L9.16893 10.077L9.16811 10.0787L12.7826 11.792ZM10.9762 10.9336C12.4269 12.3104 12.7059 11.9376 12.8912 11.5104C12.9226 11.3937 12.9702 11.088 12.9759 10.8993C12.971 10.6138 12.9053 10.3969 12.8744 10.3038C12.8092 10.1072 12.7275 9.96667 12.7056 9.92897C12.6465 9.82724 12.591 9.75339 12.5794 9.73796C12.5428 9.68888 12.5118 9.65215 12.5058 9.6451C12.4857 9.62127 12.4693 9.60291 12.4659 9.5991C12.4547 9.58657 12.4447 9.57575 12.4398 9.57047C12.4278 9.55747 12.4102 9.53851 12.3824 9.50883C12.3257 9.44825 12.2153 9.33078 11.9979 9.10032L9.08812 11.845C9.30473 12.0746 9.41092 12.1876 9.4623 12.2425C9.47501 12.2561 9.48395 12.2656 9.49008 12.2722C9.49314 12.2755 9.49537 12.2779 9.49693 12.2796C9.4977 12.2804 9.49827 12.281 9.49867 12.2815C9.49906 12.2819 9.49925 12.2821 9.49924 12.2821C9.49924 12.2821 9.49918 12.282 9.49906 12.2819C9.49895 12.2818 9.49878 12.2816 9.49854 12.2813C9.4981 12.2809 9.49734 12.28 9.49634 12.2789C9.49475 12.2772 9.49052 12.2726 9.48489 12.2663C9.4823 12.2634 9.46624 12.2455 9.44637 12.2219C9.44053 12.2149 9.40949 12.1783 9.37292 12.1292C9.36142 12.1138 9.30592 12.04 9.24682 11.9382C9.22493 11.9005 9.14316 11.76 9.07795 11.5634C9.04705 11.4703 8.98138 11.2535 8.97648 10.9679C8.98216 10.7792 9.02983 10.4735 9.06116 10.3569C9.24643 9.92965 9.52548 9.55686 10.9762 10.9336ZM11.9966 9.09895C11.78 8.8697 11.6761 8.75893 11.6277 8.70694C11.6024 8.67967 11.5976 8.6743 11.6016 8.6788C11.6032 8.68049 11.6067 8.68443 11.6116 8.68992C11.6157 8.69461 11.625 8.70521 11.6369 8.71921C11.6419 8.72514 11.6762 8.7653 11.7163 8.81927C11.7261 8.83245 11.7945 8.9229 11.8635 9.04855C11.8823 9.08271 12 9.29024 12.0642 9.58314C12.094 9.7188 12.1646 10.0931 12.0368 10.5502C11.9662 10.8028 11.8308 11.093 11.59 11.3576C11.4677 11.4809 11.2667 11.6437 11.1962 11.6914C10.9912 11.8074 10.7739 11.8985 10.1107 10.0117C9.44745 8.12484 9.23017 8.21592 9.02511 8.33192C8.95461 8.37964 8.75365 8.54249 8.63133 8.66573C8.39055 8.93038 8.25518 9.22052 8.18456 9.47309C8.05674 9.93021 8.12736 10.3045 8.15712 10.4402C8.22138 10.7331 8.33909 10.9406 8.35786 10.9748C8.42692 11.1005 8.4953 11.191 8.50517 11.2043C8.54544 11.2585 8.58011 11.2991 8.58593 11.306C8.60766 11.3316 8.62637 11.3524 8.63253 11.3592C8.64972 11.3782 8.6715 11.4018 8.69986 11.4323C8.75893 11.4958 8.87126 11.6155 9.08941 11.8463L11.9966 9.09895ZM11.5615 11.3883L11.5631 11.3866L8.66153 8.63327L8.65989 8.635L11.5615 11.3883ZM11.5638 11.3859L11.5654 11.3842L8.66252 8.63223L8.66088 8.63396L11.5638 11.3859ZM11.4338 11.5109L11.4387 11.5066L8.79905 8.50121L8.79412 8.50553L11.4338 11.5109ZM11.5699 11.3803L11.5781 11.3717L8.67609 8.61878L8.66789 8.62743L11.5699 11.3803ZM11.5018 11.4479C11.4501 11.4968 11.3949 11.5428 11.3365 11.5854L8.98004 8.35318C8.89977 8.41171 8.82377 8.47503 8.75238 8.54259L11.5018 11.4479ZM11.3458 11.5786C11.3303 11.59 11.3168 11.5995 11.3192 11.5978C11.3201 11.5972 11.3225 11.5955 11.3256 11.5932C11.3284 11.5913 11.3346 11.5868 11.3424 11.5811C11.3486 11.5766 11.3654 11.5643 11.3865 11.548C11.3892 11.5459 11.4651 11.4886 11.5501 11.4067C11.5761 11.3817 11.6204 11.3377 11.6715 11.2791C11.7109 11.2338 11.8159 11.1106 11.9153 10.9301C11.9544 10.8589 12.3166 10.2378 12.0887 9.42555C11.7725 8.29841 10.771 8.03102 10.4382 7.9848C10.1006 7.93792 9.83591 7.99154 9.76878 8.00504C9.6625 8.02642 9.58028 8.05208 9.53839 8.06585C9.45276 8.094 9.38801 8.1219 9.36497 8.13193C9.31164 8.15514 9.27094 8.17576 9.26229 8.18012C9.24711 8.18778 9.2353 8.19398 9.23055 8.19648C9.20999 8.20732 9.26723 8.17634 9.32906 8.14841L10.976 11.7936C11.0493 11.7605 11.1135 11.7256 11.095 11.7354C11.0904 11.7378 11.0787 11.744 11.0636 11.7516C11.055 11.7559 11.0144 11.7765 10.9611 11.7997C10.9381 11.8097 10.8734 11.8376 10.7878 11.8657C10.7459 11.8795 10.6637 11.9052 10.5574 11.9265C10.4903 11.94 10.2255 11.9937 9.88797 11.9468C9.55516 11.9006 8.55365 11.6332 8.23743 10.506C8.00955 9.69374 8.37175 9.07265 8.41092 9.00148C8.51025 8.821 8.61528 8.69777 8.65471 8.65248C8.70573 8.59388 8.75008 8.54992 8.77602 8.52495C8.86106 8.44308 8.9369 8.38578 8.9395 8.38377C8.96052 8.36752 8.97726 8.35526 8.98335 8.35081C8.99105 8.34519 8.99712 8.34084 8.99976 8.33896C9.00271 8.33684 9.005 8.33522 9.00567 8.33475C9.00656 8.33412 8.99027 8.34559 8.97071 8.36002L11.3458 11.5786ZM9.44288 8.10115C9.56962 8.05305 9.71408 8.01456 9.86846 7.9986C10.013 7.98365 10.1286 7.99237 10.207 8.00495L9.57297 11.9544C10.0835 12.0363 10.5178 11.9716 10.8622 11.8409L9.44288 8.10115ZM10.2117 8.00571C10.3725 8.03191 10.363 8.07058 10.1639 7.94377C9.96609 7.81781 9.61767 7.55152 9.11224 7.02168L6.21793 9.78265C7.51193 11.1391 8.59966 11.7958 9.5683 11.9536L10.2117 8.00571ZM7.14695 -0.156982C5.64596 -2.26677 2.53155 -2.72873 0.590948 -0.694712L3.48505 2.06648C3.52144 2.02834 3.54903 2.01514 3.56548 2.00919C3.58456 2.00229 3.60996 1.99784 3.6427 2.00106C3.70721 2.0074 3.80448 2.04494 3.88763 2.16182L7.14695 -0.156982ZM4.35229 2.98661C3.86202 3.50053 3.16329 3.3084 2.90153 2.93992L6.16246 0.623395C5.06882 -0.916103 2.82119 -1.20336 1.45803 0.225581L4.35229 2.98661ZM5.77327 3.34986L6.75774 2.57062L4.2752 -0.565775L3.29072 0.213464L5.77327 3.34986ZM5.51647 3.00242H5.51729V-0.997579H5.51647V3.00242ZM3.23019 3.74264C3.2514 4.12934 3.07113 4.33033 3.0648 4.33696L0.171121 1.57532C-0.376669 2.1493 -0.817825 2.97645 -0.763806 3.96163L3.23019 3.74264ZM3.07222 1.58314L2.20342 0.662925L-0.705094 3.40893L0.163703 4.32914L3.07222 1.58314ZM-0.698005 0.655455C-1.40874 1.40052 -2.07297 2.56712 -1.99365 4.03285L2.0005 3.81671C1.99614 3.73607 2.02596 3.59501 2.19633 3.4164L-0.698005 0.655455ZM0.121368 5.9213L1.35114 5.84865L1.11525 1.85562L-0.11452 1.92826L0.121368 5.9213ZM11.8584 12.9059C11.8584 12.9059 12.0347 12.7211 12.4077 12.6851L12.7918 16.6666C13.6488 16.5839 14.3108 16.1328 14.7604 15.6588L11.8584 12.9059ZM10.6075 14.8518L10.7215 16.143L14.706 15.7912L14.592 14.4999L10.6075 14.8518ZM12.9108 17.9574C14.1278 17.8369 15.0365 17.1988 15.6238 16.5838L12.731 13.8213C12.6617 13.8938 12.6032 13.9359 12.5643 13.9575C12.546 13.9677 12.5338 13.9723 12.5275 13.9743C12.5218 13.9762 12.5188 13.9766 12.5168 13.9768L12.9108 17.9574ZM15.6323 13.8302L14.7643 12.91L11.8545 15.6547L12.7225 16.5749L15.6323 13.8302ZM7.81075 6.98432C9.32071 5.40222 9.3825 2.99342 8.18278 1.30303L4.92083 3.61812C4.99062 3.71645 5.02578 3.84065 5.01899 3.96345C5.01237 4.08323 4.96888 4.1684 4.91712 4.22264L7.81075 6.98432ZM5.31286 0.890536L4.32757 1.66804L6.80546 4.80812L7.79075 4.03061L5.31286 0.890536ZM3.93516 4.3951C3.74068 4.1209 3.70683 3.66504 4.04737 3.30688L6.9462 6.06311C7.98899 4.96636 8.05358 3.28759 7.19787 2.08107L3.93516 4.3951ZM4.04252 6.05799L4.90967 6.97647L7.8182 4.23048L6.95104 3.312L4.04252 6.05799ZM13.1799 13.0115C12.9415 12.8749 12.8085 12.6412 12.7758 12.4245C12.7458 12.2254 12.7874 11.933 13.0277 11.681L15.9226 14.4414C17.307 12.9895 16.9458 10.5591 15.1683 9.54071L13.1799 13.0115ZM13.0209 14.4342L13.8889 15.3535L16.7974 12.6075L15.9294 11.6882L13.0209 14.4342ZM16.7906 15.3607C18.8269 13.2252 18.172 9.78465 15.7543 8.40053L13.767 11.8719C13.867 11.9291 13.9643 12.0516 13.9928 12.2299C14.0199 12.3995 13.9708 12.5216 13.8957 12.6003L16.7906 15.3607ZM12.9823 9.22108L12.3957 10.361L15.9524 12.1912L16.539 11.0513L12.9823 9.22108ZM12.7985 11.922C12.4636 12.2733 11.9601 12.3116 11.6146 12.1143L13.5981 8.64072C12.3862 7.94872 10.8687 8.14961 9.90368 9.16163L12.7985 11.922ZM14.3839 11.2942L14.9713 10.1552L11.4162 8.32179L10.8288 9.46081L14.3839 11.2942ZM14.1891 7.50376C12.5226 6.54754 10.4078 6.80491 9.03684 8.24022L11.9294 11.003C11.9728 10.9576 12.0126 10.9426 12.0468 10.9379C12.0835 10.9329 12.1358 10.9373 12.1984 10.9732L14.1891 7.50376ZM9.02823 10.9939L9.89621 11.9141L12.806 9.16951L11.938 8.2493L9.02823 10.9939Z" fill="white" mask="url(#path-1-inside-1_932_940)"/>
</svg>
