<svg width="36" height="25" viewBox="0 0 36 25" fill="none" xmlns="http://www.w3.org/2000/svg">
<path d="M27.994 24.319C25.832 24.319 24.0147 23.5513 22.542 22.016C21.1007 20.4807 20.38 18.2873 20.38 15.436C20.38 12.8353 20.8657 10.548 21.837 8.57399C22.8397 6.56866 24.093 4.87667 25.597 3.498C27.1323 2.088 28.699 0.991329 30.297 0.207996L33.07 3.075C32.318 3.38833 31.3937 3.99933 30.297 4.908C29.2317 5.78533 28.2917 6.80366 27.477 7.963C26.6623 9.12233 26.2393 10.2973 26.208 11.488C26.5213 11.1433 27.0227 10.8613 27.712 10.642C28.4013 10.3913 29.122 10.266 29.874 10.266C31.3153 10.266 32.6313 10.8143 33.822 11.911C35.0127 12.9763 35.608 14.543 35.608 16.611C35.608 18.961 34.8717 20.841 33.399 22.251C31.9577 23.6297 30.156 24.319 27.994 24.319ZM8.442 24.319C6.28 24.319 4.46267 23.5513 2.99 22.016C1.54867 20.4807 0.828 18.2873 0.828 15.436C0.828 12.8353 1.31367 10.548 2.285 8.57399C3.28767 6.56866 4.541 4.87667 6.045 3.498C7.58033 2.088 9.147 0.991329 10.745 0.207996L13.518 3.075C12.766 3.38833 11.8417 3.99933 10.745 4.908C9.67967 5.78533 8.73967 6.80366 7.925 7.963C7.11033 9.12233 6.68733 10.2973 6.656 11.488C6.96933 11.1433 7.47067 10.8613 8.16 10.642C8.84933 10.3913 9.57 10.266 10.322 10.266C11.7633 10.266 13.0793 10.8143 14.27 11.911C15.4607 12.9763 16.056 14.543 16.056 16.611C16.056 18.961 15.3197 20.841 13.847 22.251C12.4057 23.6297 10.604 24.319 8.442 24.319Z" fill="#DEBE88" fill-opacity="0.5"/>
</svg>
