<svg width="62" height="54" viewBox="0 0 62 54" fill="none" xmlns="http://www.w3.org/2000/svg">
<path d="M60.2965 42.5501H38.5798M1 35.014V4.20757C1 2.43608 2.43608 1 4.20757 1H57.0889C58.8604 1 60.2965 2.43608 60.2965 4.20757V5.42117V8.59052M1 35.014V39.3425C1 41.114 2.43608 42.5501 4.20757 42.5501H25.1011M1 35.014C19.6001 35.014 25.4308 35.014 44.0308 35.014H60.2965V27.2245M38.5798 42.5501V49.6461M38.5798 42.5501H25.1011M38.5798 49.6461H25.1011M38.5798 49.6461H42.3815V52.9232H21.2004V49.6461H25.1011M25.1011 49.6461V42.5501" stroke="white" stroke-width="1.5"/>
<path d="M14.9827 13.1612V19.0877C14.9827 19.7267 14.847 20.2989 14.5755 20.8042C14.3082 21.3096 13.9031 21.7105 13.3601 22.0071C12.8172 22.2994 12.1343 22.4456 11.3115 22.4456C10.1379 22.4456 9.24416 22.1386 8.63021 21.5247C8.02044 20.9066 7.71555 20.0859 7.71555 19.0626V13.1612H9.2191V18.9311C9.2191 19.6954 9.39869 20.2592 9.75787 20.6226C10.1171 20.9859 10.6537 21.1676 11.3679 21.1676C11.8608 21.1676 12.2617 21.082 12.5708 20.9107C12.884 20.7353 13.1137 20.4806 13.2599 20.1464C13.4102 19.8081 13.4854 19.4009 13.4854 18.9248V13.1612H14.9827ZM17.3257 22.3203V13.1612H18.8293V22.3203H17.3257Z" fill="white"/>
<path d="M46.345 12.7706V18.6971C46.345 19.3361 46.2093 19.9082 45.9378 20.4136C45.6705 20.919 45.2654 21.3199 44.7224 21.6164C44.1795 21.9088 43.4966 22.055 42.6738 22.055C41.5002 22.055 40.6065 21.748 39.9925 21.1341C39.3827 20.5159 39.0779 19.6952 39.0779 18.672V12.7706H40.5814V18.5404C40.5814 19.3047 40.761 19.8686 41.1202 20.2319C41.4794 20.5953 42.016 20.777 42.7302 20.777C43.2231 20.777 43.624 20.6913 43.9331 20.5201C44.2463 20.3447 44.476 20.0899 44.6222 19.7558C44.7726 19.4175 44.8477 19.0103 44.8477 18.5342V12.7706H46.345ZM55.4478 21.9297H53.7375L51.432 18.1771L49.1141 21.9297H47.504L50.5487 17.181L47.7107 12.7706H49.3709L51.5009 16.2413L53.6184 12.7706H55.2285L52.378 17.2248L55.4478 21.9297Z" fill="white"/>
<path d="M35.1289 9.67969L24.4612 29.5271" stroke="white" stroke-width="1.5" stroke-linecap="round"/>
</svg>
