<svg width="47" height="39" viewBox="0 0 47 39" fill="none" xmlns="http://www.w3.org/2000/svg">
<path d="M43.7757 30.6082H28.3005M1.52148 25.2381V4.20757C1.52148 2.43608 2.95756 1 4.72906 1H40.6252C42.3651 1 43.7757 2.41052 43.7757 4.15049V4.15049V6.40894M1.52148 25.2381V27.4006C1.52148 29.1721 2.95756 30.6082 4.72906 30.6082H18.6957M1.52148 25.2381C14.7757 25.2381 18.9306 25.2381 32.1849 25.2381H43.7757V19.6873M28.3005 30.6082V35.6648M28.3005 30.6082H18.6957M28.3005 35.6648H18.6957M28.3005 35.6648H31.0096V38H15.9161V35.6648H18.6957M18.6957 35.6648V30.6082" stroke="#54372A" stroke-width="1.5"/>
<path d="M13.3948 7.84088V13.7674C13.3948 14.4064 13.2591 14.9786 12.9876 15.4839C12.7203 15.9893 12.3152 16.3902 11.7722 16.6868C11.2293 16.9791 10.5464 17.1253 9.72365 17.1253C8.55005 17.1253 7.65627 16.8183 7.04232 16.2044C6.43255 15.5862 6.12766 14.7656 6.12766 13.7423V7.84088H7.63121V13.6107C7.63121 14.3751 7.8108 14.9389 8.16998 15.3022C8.52917 15.6656 9.06585 15.8473 9.78004 15.8473C10.2729 15.8473 10.6738 15.7617 10.9829 15.5904C11.2961 15.415 11.5258 15.1602 11.672 14.8261C11.8224 14.4878 11.8975 14.0806 11.8975 13.6045V7.84088H13.3948ZM15.7379 17V7.84088H17.2414V17H15.7379Z" fill="#54372A"/>
<path d="M37.2308 7.84088V13.7674C37.2308 14.4064 37.095 14.9786 36.8235 15.4839C36.5562 15.9893 36.1511 16.3902 35.6082 16.6868C35.0652 16.9791 34.3824 17.1253 33.5596 17.1253C32.386 17.1253 31.4922 16.8183 30.8783 16.2044C30.2685 15.5862 29.9636 14.7656 29.9636 13.7423V7.84088H31.4671V13.6107C31.4671 14.3751 31.6467 14.9389 32.0059 15.3022C32.3651 15.6656 32.9018 15.8473 33.616 15.8473C34.1088 15.8473 34.5097 15.7617 34.8188 15.5904C35.1321 15.415 35.3618 15.1602 35.5079 14.8261C35.6583 14.4878 35.7335 14.0806 35.7335 13.6045V7.84088H37.2308ZM46.3335 17H44.6232L42.3178 13.2474L39.9998 17H38.3897L41.4344 12.2513L38.5965 7.84088H40.2567L42.3867 11.3116L44.5042 7.84088H46.1142L43.2638 12.2951L46.3335 17Z" fill="#54372A"/>
<path d="M26.8535 6L21.0001 18.1235" stroke="#54372A" stroke-width="1.5" stroke-linecap="round"/>
</svg>
