<svg width="75" height="55" viewBox="0 0 75 55" fill="none" xmlns="http://www.w3.org/2000/svg">
<path d="M55.9451 11.0898V14.5784L52.5258 15.7413L49.7903 13.4155L46.2342 17.0333L48.9697 19.6174L47.3284 23.106H44.1826V28.145H48.0123L49.7903 31.3751L47.3284 33.4424L50.2682 36.6726L53.3464 34.2176L57.1761 35.7681L57.7232 38.7398H61.1425V35.7681L64.5618 34.2176L67.5709 36.6726L71.2637 33.4424L68.9386 30.5999L70.0328 27.3697H73.7257V22.4599H70.0328L68.9386 19.6174L71.2637 17.0333L67.5709 13.4155L64.5618 15.7413L61.1425 14.5784V11.0898H55.9451Z" stroke="white" stroke-width="1.5"/>
<path d="M64.6071 25.1488C64.6071 28.1064 62.0561 30.5759 58.8182 30.5759C55.5803 30.5759 53.0293 28.1064 53.0293 25.1488C53.0293 22.1911 55.5803 19.7217 58.8182 19.7217C62.0561 19.7217 64.6071 22.1911 64.6071 25.1488Z" stroke="white" stroke-width="1.5"/>
<path d="M61.7505 5.52958V5C61.7505 2.79086 59.9596 1 57.7505 1H5C2.79086 1 1 2.79086 1 5V35.8481M61.7505 43.5689H39.5012M45.086 35.8481C26.0298 35.8481 20.0562 35.8481 1 35.8481M1 35.8481V39.5689C1 41.778 2.79086 43.5689 5 43.5689H25.6921M39.5012 43.5689V50.8389M39.5012 43.5689H25.6921M39.5012 50.8389H25.6921M39.5012 50.8389H43.3962V54.1963H21.6957V50.8389H25.6921M25.6921 50.8389V43.5689M31.1496 9.24863L20.1242 26.2453M33.4534 14.1549L39.5012 19.9372L32.6306 23.4417M19.466 14.1549L12.0609 19.9372L16.504 23.4417" stroke="white" stroke-width="1.5"/>
</svg>
