<svg width="53" height="40" viewBox="0 0 53 40" fill="none" xmlns="http://www.w3.org/2000/svg">
<path d="M39.5309 8.07031V10.5167L37.133 11.3322L35.2147 9.70125L32.7209 12.2383L34.6392 14.0504L33.4883 16.4968H31.2822V20.0305H33.9678L35.2147 22.2957L33.4883 23.7455L35.5498 26.0107L37.7085 24.2891L40.3941 25.3764L40.7778 27.4604H43.1757V25.3764L45.5735 24.2891L47.6837 26.0107L50.2734 23.7455L48.6428 21.7521L49.4101 19.4869H51.9998V16.0438H49.4101L48.6428 14.0504L50.2734 12.2383L47.6837 9.70125L45.5735 11.3322L43.1757 10.5167V8.07031H39.5309Z" stroke="#54372A" stroke-width="1.5"/>
<path d="M45.382 17.9334C45.382 19.8719 43.7056 21.5152 41.5465 21.5152C39.3874 21.5152 37.7109 19.8719 37.7109 17.9334C37.7109 15.9948 39.3874 14.3516 41.5465 14.3516C43.7056 14.3516 45.382 15.9948 45.382 17.9334Z" stroke="#54372A" stroke-width="1.5"/>
<path d="M43.6024 4.17645V3.80508C43.6024 2.25588 42.3466 1 40.7974 1H3.80508C2.25588 1 1 2.25588 1 3.80508V25.4379M43.6024 30.8522H27.9997M31.9161 25.4379C18.5526 25.4379 14.3635 25.4379 1 25.4379M1 25.4379V28.0472C1 29.5964 2.25588 30.8522 3.80508 30.8522H18.3158M27.9997 30.8522V35.9505M27.9997 30.8522H18.3158M27.9997 35.9505H18.3158M27.9997 35.9505H30.7311V38.3049H15.5133V35.9505H18.3158M18.3158 35.9505V30.8522M22.143 6.78451L14.4112 18.7037M23.7585 10.2251L27.9997 14.2801L23.1815 16.7377M13.9496 10.2251L8.75669 14.2801L11.8725 16.7377" stroke="#54372A" stroke-width="1.5"/>
</svg>
